<svg xmlns="http://www.w3.org/2000/svg" width="163" height="25" viewBox="0 0 163 25" fill="none"><script xmlns=""/>
<path fill-rule="evenodd" clip-rule="evenodd" d="M15.9543 0.00561523V4.18724H10.2809L10.2315 19.1816L5.98876 19.1641L5.9394 4.18724H0V0.00561523H15.9543ZM46.876 6.29965V19.5569H50.6334L55.7939 11.906V19.5623H59.8831V6.29965H56.1528L50.9652 14.1789V6.29965H46.876ZM50.1223 3.96141C50.938 4.68463 52.0255 5.04896 53.3904 5.04896C54.7498 5.04896 55.8482 4.69007 56.6748 3.95598C57.5013 3.23276 57.9146 2.29203 57.9146 1.13379H55.4894C55.4241 1.69931 55.2229 2.14521 54.9021 2.47691C54.5813 2.80861 54.0755 2.97718 53.3958 2.97718C52.6944 2.97718 52.1723 2.80318 51.8243 2.45516C51.4763 2.10715 51.3023 1.66669 51.3023 1.13923H48.8988C48.8988 2.29747 49.3066 3.23819 50.1223 3.96141ZM37.6534 19.8179C36.5115 19.8179 35.4946 19.633 34.6028 19.2632C33.711 18.8935 32.9552 18.3932 32.3407 17.7515C31.7263 17.1153 31.2641 16.3867 30.9487 15.5601C30.6333 14.739 30.4756 13.8744 30.4756 12.9663C30.4756 12.0419 30.6333 11.1719 30.9487 10.3508C31.2641 9.52967 31.7263 8.80101 32.3407 8.15936C32.9552 7.52314 33.7056 7.01743 34.6028 6.64767C35.4946 6.2779 36.5169 6.09302 37.6534 6.09302C38.7953 6.09302 39.8067 6.2779 40.6931 6.64767C41.5794 7.01743 42.3299 7.52314 42.9389 8.15936C43.5534 8.79558 44.021 9.52423 44.3418 10.3508C44.6627 11.1719 44.8258 12.0473 44.8258 12.9663C44.8258 13.8744 44.6627 14.739 44.3418 15.5601C44.0156 16.3812 43.5479 17.1099 42.9389 17.7515C42.3244 18.3878 41.574 18.8935 40.6931 19.2632C39.8067 19.633 38.7953 19.8179 37.6534 19.8179ZM34.6626 12.9663C34.6626 13.646 34.7931 14.2388 35.0596 14.7499C35.326 15.2611 35.6741 15.658 36.12 15.9408C36.5604 16.2235 37.0716 16.3595 37.6534 16.3595C38.2135 16.3595 38.7192 16.2127 39.1705 15.9245C39.6219 15.6363 39.9753 15.2339 40.2309 14.7227C40.4865 14.2116 40.6115 13.6243 40.6115 12.9609C40.6115 12.2812 40.4865 11.6885 40.2309 11.1773C39.9753 10.6662 39.6219 10.2692 39.1705 9.98644C38.7192 9.70368 38.2135 9.56773 37.6534 9.56773C37.0716 9.56773 36.5659 9.70912 36.12 9.98644C35.6795 10.2692 35.326 10.6662 35.0596 11.1773C34.7931 11.6939 34.6626 12.292 34.6626 12.9663ZM16.5005 19.5513V6.29956H24.2656C25.2552 6.29956 26.0492 6.45182 26.6527 6.75089C27.2563 7.05541 27.6968 7.44149 27.9687 7.92001C28.2406 8.39853 28.3765 8.92055 28.3765 9.49152C28.3765 10.2474 28.2079 10.889 27.8762 11.4274C27.5445 11.9657 27.0225 12.3898 26.3047 12.7107C27.0878 12.9282 27.7294 13.2979 28.2351 13.8145C28.7354 14.3311 28.991 15.038 28.991 15.9298C28.991 16.8107 28.7843 17.5176 28.3656 18.0451C27.9469 18.578 27.3542 18.9641 26.5766 19.1979C25.8045 19.4317 24.8692 19.5513 23.7816 19.5513H16.5005ZM20.383 11.5905H23.2433C23.4989 11.5905 23.7272 11.5361 23.9339 11.4165C24.1405 11.3023 24.2928 11.1446 24.3961 10.938C24.4994 10.7313 24.5483 10.5084 24.5483 10.2637C24.5483 9.9211 24.4287 9.62746 24.1894 9.39364C23.9502 9.15438 23.6457 9.03474 23.2705 9.03474H20.383V11.5905ZM20.383 16.827H23.6511C23.9067 16.827 24.1405 16.7672 24.3526 16.653C24.5647 16.5388 24.7332 16.3757 24.8529 16.1636C24.9725 15.957 25.0323 15.7232 25.0323 15.473C25.0323 15.1903 24.9779 14.9456 24.8637 14.7444C24.755 14.5432 24.5918 14.3855 24.3798 14.2659C24.1677 14.1517 23.9339 14.0918 23.6783 14.0918H20.383V16.827ZM69.0508 19.5513V1.42188H82.4874V5.02166H73.2378V8.64864H77.7077C79.7686 8.64864 81.3238 9.12716 82.3678 10.0896C83.4173 11.0521 83.9393 12.3517 83.9393 13.9831C83.9393 15.1087 83.7109 16.0875 83.265 16.9194C82.8137 17.7514 82.1449 18.3985 81.2585 18.8607C80.3722 19.3229 79.2683 19.5513 77.936 19.5513H69.0508ZM73.2433 15.957H77.3488C77.9089 15.957 78.3602 15.8536 78.6919 15.6524C79.0236 15.4458 79.2628 15.1902 79.4097 14.8749C79.5565 14.5595 79.6272 14.2223 79.6272 13.8634C79.6272 13.5209 79.5619 13.2 79.4369 12.8901C79.3118 12.5856 79.0725 12.3409 78.7354 12.1614C78.3928 11.982 77.9197 11.895 77.3053 11.895H73.2433V15.957ZM91.7099 19.1762C92.4603 19.6058 93.3358 19.8179 94.3418 19.8179C95.4619 19.8179 96.4734 19.5079 97.3488 18.9043C98.2243 18.3007 98.9095 17.4742 99.4043 16.4356C99.8991 15.397 100.144 14.2224 100.144 12.9119C100.144 11.9549 99.9861 11.0631 99.6816 10.242C99.3717 9.42092 98.9367 8.6977 98.3766 8.0778C97.8165 7.45789 97.1531 6.97393 96.3972 6.62048C95.6414 6.26703 94.8094 6.09302 93.9067 6.09302C92.9008 6.09302 92.0253 6.30509 91.2749 6.7238C90.5245 7.1425 89.9046 7.72978 89.4097 8.48563V6.29965H85.8589V25H89.9481V17.4253C90.3722 18.1648 90.9595 18.7466 91.7099 19.1762ZM94.1732 16.0822C93.8089 16.2725 93.401 16.3649 92.9606 16.3649C92.5364 16.3649 92.1232 16.2616 91.7208 16.0495C91.3292 15.8429 90.9758 15.5656 90.6713 15.223C90.3668 14.8804 90.1166 14.4889 89.9318 14.043V11.3241C90.0677 11.0468 90.2363 10.8021 90.4429 10.59C90.6495 10.378 90.8725 10.1931 91.1226 10.0408C91.3728 9.88856 91.6338 9.76893 91.9165 9.68737C92.1993 9.61124 92.4766 9.56773 92.7485 9.56773C93.2107 9.56773 93.6349 9.65474 94.0264 9.81787C94.4179 9.981 94.7605 10.2203 95.0487 10.5248C95.3423 10.8293 95.5653 11.1827 95.7284 11.5797C95.8915 11.9767 95.9731 12.4171 95.9731 12.8956C95.9731 13.3578 95.9024 13.7983 95.7556 14.2224C95.6087 14.6466 95.4021 15.0109 95.1302 15.3263C94.8583 15.6417 94.5375 15.8918 94.1732 16.0822ZM108.594 19.8179C107.452 19.8179 106.435 19.633 105.543 19.2632C104.652 18.8935 103.896 18.3932 103.281 17.7515C102.667 17.1153 102.205 16.3867 101.889 15.5601C101.574 14.739 101.416 13.8744 101.416 12.9663C101.416 12.0419 101.574 11.1719 101.889 10.3508C102.205 9.52967 102.667 8.80101 103.281 8.15936C103.896 7.52314 104.646 7.01743 105.543 6.64767C106.435 6.2779 107.458 6.09302 108.594 6.09302C109.736 6.09302 110.747 6.2779 111.634 6.64767C112.52 7.01743 113.271 7.52314 113.88 8.15936C114.494 8.79558 114.962 9.52423 115.282 10.3508C115.603 11.1719 115.766 12.0473 115.766 12.9663C115.766 13.8744 115.603 14.739 115.282 15.5601C114.956 16.3812 114.489 17.1099 113.88 17.7515C113.265 18.3878 112.515 18.8935 111.634 19.2632C110.747 19.633 109.736 19.8179 108.594 19.8179ZM105.603 12.9663C105.603 13.646 105.734 14.2388 106 14.7499C106.267 15.2611 106.615 15.658 107.061 15.9408C107.501 16.2235 108.012 16.3595 108.594 16.3595C109.154 16.3595 109.66 16.2127 110.111 15.9245C110.563 15.6363 110.916 15.2339 111.172 14.7227C111.427 14.2116 111.552 13.6243 111.552 12.9609C111.552 12.2812 111.427 11.6885 111.172 11.1773C110.916 10.6662 110.563 10.2692 110.111 9.98644C109.66 9.70368 109.154 9.56773 108.594 9.56773C108.012 9.56773 107.507 9.70912 107.061 9.98644C106.62 10.2692 106.267 10.6662 106 11.1773C105.739 11.6939 105.603 12.292 105.603 12.9663ZM117.817 6.29956V19.5568H121.879V14.5486H122.77L126.37 19.5568H131.047L125.962 12.6345L130.563 6.29956H126.169L122.847 10.9978H121.879V6.29956H117.817ZM138.839 19.8176C137.697 19.8176 136.685 19.6381 135.799 19.2738C134.913 18.9095 134.162 18.4201 133.537 17.7947C132.917 17.1694 132.444 16.4516 132.118 15.6359C131.791 14.8203 131.634 13.9666 131.634 13.0748C131.634 11.8023 131.917 10.6441 132.488 9.60005C133.058 8.55601 133.88 7.71316 134.951 7.06606C136.022 6.42441 137.316 6.09814 138.833 6.09814C140.35 6.09814 141.639 6.41897 142.705 7.05519C143.771 7.6914 144.581 8.52882 145.147 9.55655C145.707 10.5897 145.989 11.7099 145.989 12.9116C145.989 13.1455 145.979 13.3793 145.951 13.6022C145.924 13.8306 145.902 14.0264 145.886 14.1949H135.973C136.022 14.7768 136.191 15.2607 136.473 15.6631C136.756 16.0655 137.115 16.3646 137.561 16.5712C138.001 16.7779 138.469 16.8812 138.964 16.8812C139.578 16.8812 140.149 16.7344 140.688 16.4462C141.226 16.158 141.596 15.7665 141.797 15.2716L145.272 16.245C144.929 16.941 144.451 17.5609 143.831 18.0992C143.211 18.6376 142.477 19.0563 141.634 19.3662C140.796 19.6599 139.861 19.8176 138.839 19.8176ZM135.875 11.6936H141.699C141.628 11.1552 141.471 10.693 141.215 10.2906C140.96 9.89369 140.617 9.58374 140.193 9.36623C139.769 9.14872 139.301 9.03453 138.79 9.03453C138.262 9.03453 137.789 9.14328 137.371 9.36623C136.952 9.58374 136.615 9.89369 136.359 10.2906C136.109 10.6876 135.946 11.1552 135.875 11.6936ZM153.711 19.1762C154.462 19.6058 155.337 19.8179 156.343 19.8179C157.463 19.8179 158.475 19.5079 159.35 18.9043C160.226 18.3007 160.911 17.4742 161.406 16.4356C161.9 15.397 162.145 14.2224 162.145 12.9119C162.145 11.9549 161.987 11.0631 161.683 10.242C161.373 9.42092 160.938 8.6977 160.378 8.0778C159.818 7.45789 159.154 6.97393 158.398 6.62048C157.643 6.26703 156.811 6.09302 155.908 6.09302C154.902 6.09302 154.026 6.30509 153.276 6.7238C152.526 7.1425 151.906 7.72978 151.411 8.48563V6.29965H147.86V25H151.949V17.4253C152.373 18.1648 152.961 18.7466 153.711 19.1762ZM156.174 16.0822C155.81 16.2725 155.402 16.3649 154.962 16.3649C154.538 16.3649 154.124 16.2616 153.722 16.0495C153.33 15.8429 152.977 15.5656 152.673 15.223C152.368 14.8804 152.118 14.4889 151.933 14.043V11.3241C152.069 11.0468 152.237 10.8021 152.444 10.59C152.651 10.378 152.874 10.1931 153.124 10.0408C153.374 9.88856 153.635 9.76893 153.918 9.68737C154.201 9.61124 154.478 9.56773 154.75 9.56773C155.212 9.56773 155.636 9.65474 156.028 9.81787C156.419 9.981 156.762 10.2203 157.05 10.5248C157.344 10.8293 157.566 11.1827 157.73 11.5797C157.893 11.9767 157.974 12.4171 157.974 12.8956C157.974 13.3578 157.904 13.7983 157.757 14.2224C157.61 14.6466 157.403 15.0109 157.131 15.3263C156.86 15.6417 156.539 15.8918 156.174 16.0822Z" fill="#002E6C"/>
<path d="M12.4983 2.91735L8.38194 0.122349C8.14268 -0.0407831 7.82185 -0.0407831 7.57715 0.122349L3.46078 2.91735C3.19434 3.09679 3.49341 4.1789 3.86318 4.1789H5.84795H10.1111H12.0959C12.4711 4.18434 12.7593 3.09679 12.4983 2.91735Z" fill="#1EA7F5"/>
<script xmlns=""/></svg>